<?xml version="1.0" encoding="utf-8"?>
<!-- Generator: Adobe Illustrator 16.0.0, SVG Export Plug-In . SVG Version: 6.00 Build 0)  -->
<!DOCTYPE svg PUBLIC "-//W3C//DTD SVG 1.1//EN" "http://www.w3.org/Graphics/SVG/1.1/DTD/svg11.dtd">
<svg version="1.1" id="Layer_1" xmlns="http://www.w3.org/2000/svg" xmlns:xlink="http://www.w3.org/1999/xlink" x="0px" y="0px"
	 width="215.613px" height="218.281px" viewBox="0 0 215.613 218.281" enable-background="new 0 0 215.613 218.281"
	 xml:space="preserve">
<g>
	<g>
		<g>
			<g>
				<g>
					<g>
						<path fill="#FFFFFF" d="M128.527,167.162l-18.865-18.865c-12.438-12.439-8.788-36.334,8.139-53.261l27.006-27.004
							l11.299,11.299l-27.004,27.004c-10.334,10.335-14.139,24.664-8.139,30.664l18.863,18.865L128.527,167.162z M144.807,75.848
							l-23.096,23.096c-14.772,14.773-18.425,35.16-8.141,45.445l14.957,14.955l3.481-3.48l-14.956-14.957
							c-8.363-8.365-4.712-25.627,8.141-38.478l23.096-23.098L144.807,75.848z"/>
					</g>
				</g>
			</g>
		</g>
	</g>
	<g>
		<g>
			<g>
				<g>
					<g>
						<path fill="#FFFFFF" d="M77.046,158.39l-11.299-11.299l27.005-27.006c7.776-7.779,17.291-13.076,26.787-14.919
							c2.452-0.475,4.877-0.715,7.204-0.715c7.7,0,14.365,2.592,19.27,7.496l19.655,18.865l-11.299,11.301l-19.655-18.867
							c-2.539-2.537-6.925-3.402-12.132-2.391c-6.4,1.24-12.981,4.98-18.531,10.529L77.046,158.39z M73.564,147.091l3.481,3.48
							l23.098-23.096c6.32-6.32,13.916-10.6,21.385-12.047c1.781-0.346,3.521-0.521,5.169-0.521c4.904,0,9.026,1.531,11.925,4.43
							l15.747,14.957l3.482-3.482l-15.747-14.957c-3.847-3.846-9.158-5.876-15.361-5.876c-1.976,0-4.044,0.207-6.15,0.615
							c-8.428,1.634-16.926,6.394-23.933,13.4L73.564,147.091z"/>
					</g>
				</g>
			</g>
		</g>
	</g>
	<g>
		<g>
			<g>
				<g>
					<g>
						<path fill="#FFFFFF" d="M69.629,151.056L58.33,139.757l27.007-27.004c10.334-10.335,14.278-24.523,8.441-30.361L75.215,63.83
							l11.299-11.299l18.563,18.561c12.273,12.275,8.487,36.033-8.441,52.96L69.629,151.056z M66.147,139.757l3.481,3.482
							l23.099-23.096c14.772-14.773,18.561-35.025,8.441-45.142L86.514,60.348l-3.48,3.482l14.654,14.654
							c8.196,8.197,4.41,25.324-8.442,38.177L66.147,139.757z"/>
					</g>
				</g>
			</g>
		</g>
	</g>
	<g>
		<g>
			<g>
				<g>
					<g>
						<path fill="#FFFFFF" d="M87.62,114.689c-7.621,0-14.154-2.506-18.894-7.244L50.164,88.881l11.3-11.299l18.563,18.562
							c2.219,2.221,5.387,2.686,7.654,2.686c7.141,0,15.841-4.264,22.705-11.127l27.004-27.006l11.301,11.301l-27.006,27.004
							C111.863,108.824,99.128,114.689,87.62,114.689z M57.979,88.881l14.655,14.654c3.682,3.682,8.862,5.627,14.985,5.627
							c10.074,0,21.348-5.26,30.157-14.068l23.096-23.096l-3.482-3.484l-23.096,23.098c-7.864,7.863-18.062,12.748-26.613,12.748
							c-4.749,0-8.746-1.49-11.562-4.307L61.464,85.398L57.979,88.881z"/>
					</g>
				</g>
			</g>
		</g>
	</g>
</g>
<g>
	<path fill="#FFFFFF" d="M107.916,215.119c-58.047,0-105.271-47.225-105.271-105.272S49.869,4.575,107.916,4.575
		c58.048,0,105.272,47.225,105.272,105.272S165.964,215.119,107.916,215.119z M107.916,9.575
		c-55.29,0-100.271,44.982-100.271,100.272c0,55.291,44.981,100.272,100.271,100.272s100.272-44.981,100.272-100.272
		C208.188,54.557,163.206,9.575,107.916,9.575z"/>
</g>
</svg>
