<?xml version="1.0" encoding="utf-8"?>
<!-- Generator: Adobe Illustrator 16.0.0, SVG Export Plug-In . SVG Version: 6.00 Build 0)  -->
<!DOCTYPE svg PUBLIC "-//W3C//DTD SVG 1.1//EN" "http://www.w3.org/Graphics/SVG/1.1/DTD/svg11.dtd">
<svg version="1.1" id="Layer_1" xmlns="http://www.w3.org/2000/svg" xmlns:xlink="http://www.w3.org/1999/xlink" x="0px" y="0px"
	 width="851px" height="237px" viewBox="0 0 851 237" enable-background="new 0 0 851 237" xml:space="preserve">
<g>
	<g>
		<path fill="#FFFFFF" d="M270.25,159.228h8.858c8.121,0,15.053-2.869,20.794-8.614c5.782-5.779,8.674-12.733,8.674-20.852V73.961
			h2.89v55.801c0,8.939-3.157,16.546-9.474,22.821c-6.356,6.358-13.985,9.536-22.883,9.536h-8.858V159.228z"/>
		<path fill="#FFFFFF" d="M279.108,162.354h-9.091v-3.36h9.091c8.019,0,14.961-2.876,20.628-8.545
			c5.71-5.708,8.604-12.668,8.604-20.688V73.728h3.36v56.034c0,8.96-3.21,16.693-9.541,22.987
			C295.783,159.121,288.029,162.354,279.108,162.354z M270.485,161.887h8.623c8.792,0,16.435-3.186,22.722-9.468
			c6.239-6.204,9.403-13.826,9.403-22.657V74.195h-2.424v55.567c0,8.146-2.94,15.218-8.743,21.018
			c-5.756,5.762-12.809,8.684-20.958,8.684h-8.623V161.887z"/>
	</g>
	<g>
		<path fill="#FFFFFF" d="M326.293,74.149h2.525l0.244,0.306v54.999c0,8.448,2.17,15.093,6.52,19.931
			c2.38,2.789,4.532,4.779,6.458,5.969v0.122l-0.616,3.015c-10.251-6.605-15.376-16.057-15.376-28.36V74.455L326.293,74.149z
			 M387.318,74.149h2.647l0.245,0.306v54.198c0,8.243-1.515,14.602-4.553,19.071c-6.887,10.254-16.098,15.379-27.62,15.379
			c-4.306-0.164-6.726-0.471-7.261-0.921c0.247-1.847,0.512-2.77,0.803-2.77c2.253,0.493,4.449,0.738,6.582,0.738
			c10.704,0,19.191-4.984,25.469-14.95c2.295-4.262,3.443-8.611,3.443-13.04V74.455L387.318,74.149z"/>
		<path fill="#FFFFFF" d="M358.037,163.337h-0.007c-5.865-0.226-7.032-0.664-7.401-0.978l-0.099-0.083l0.016-0.124
			c0.328-2.478,0.639-2.974,1.033-2.974c2.274,0.491,4.472,0.738,6.582,0.738c10.568,0,19.069-4.993,25.271-14.841
			c2.258-4.197,3.406-8.548,3.406-12.916V74.373l0.369-0.458h2.872l0.364,0.458v54.28c0,8.255-1.543,14.715-4.592,19.2
			C378.95,158.127,369.591,163.337,358.037,163.337z M351.028,162.071c0.491,0.274,2.149,0.611,7.016,0.798
			c11.386,0,20.611-5.141,27.419-15.277c2.996-4.409,4.514-10.781,4.514-18.939V74.538l-0.123-0.156h-2.424l-0.125,0.156v57.623
			c0,4.447-1.167,8.87-3.471,13.151c-6.301,10.007-14.936,15.073-25.674,15.073c-2.122,0-4.331-0.244-6.563-0.729
			C351.519,159.746,351.291,160.164,351.028,162.071z M341.586,158.872l-0.286-0.185c-10.277-6.619-15.487-16.227-15.487-28.559
			V74.373l0.367-0.458h2.749l0.367,0.458v55.081c0,8.349,2.173,15.005,6.462,19.774c2.353,2.761,4.507,4.751,6.407,5.927l0.11,0.069
			v0.251L341.586,158.872z M326.281,74.538v55.591c0,12.046,5.042,21.455,14.982,27.978l0.54-2.627
			c-1.914-1.208-4.063-3.208-6.396-5.943c-4.366-4.854-6.58-11.614-6.58-20.083V74.538l-0.123-0.156h-2.302L326.281,74.538z"/>
	</g>
	<g>
		<path fill="#FFFFFF" d="M405.1,74.084h2.645l54.568,77.945c2.46,3.323,4.614,6.728,6.457,10.215l-0.12,0.12h-2.645
			c-0.697-0.696-15.196-21.407-43.498-62.134c-9.47-13.246-14.313-20.135-14.518-20.672h-0.12v82.561l-0.247,0.245H405.1
			l-0.245-0.245V74.394L405.1,74.084z M466.005,74.084h2.518l0.247,0.309v72.712h-0.12c-1.93-1.843-2.895-2.989-2.895-3.441V74.394
			L466.005,74.084z"/>
		<path fill="#FFFFFF" d="M468.744,162.6h-2.839l-0.069-0.069c-0.715-0.72-14.954-21.052-43.52-62.166
			c-10.245-14.328-13.328-18.78-14.214-20.161v82.013l-0.383,0.383h-2.717l-0.383-0.383V74.312l0.364-0.461h2.881l54.639,78.045
			c2.458,3.316,4.635,6.765,6.476,10.238l0.078,0.151L468.744,162.6z M466.105,162.134h2.342c-1.802-3.382-3.931-6.73-6.324-9.966
			l-54.498-77.85h-2.413l-0.125,0.157v87.547l0.106,0.111h2.332l0.108-0.111V79.325h0.519l0.056,0.15
			c0.134,0.351,2.758,4.212,14.49,20.62C450.273,139.778,464.87,160.639,466.105,162.134z M469.005,147.341h-0.452l-0.066-0.064
			c-2.627-2.512-2.966-3.252-2.966-3.612V74.312l0.368-0.461h2.747l0.369,0.46V147.341z M465.99,74.475v69.189
			c0,0.166,0.254,0.791,2.547,3.013V74.475l-0.125-0.157h-2.299L465.99,74.475z"/>
	</g>
	<g>
		<path fill="#FFFFFF" d="M526.721,72.672c11.894,0,22.477,4.408,31.748,13.225l0.118,0.123v0.125
			c-1.107,1.312-1.76,1.967-1.965,1.967c-4.842-4.47-9.62-7.606-14.334-9.411c-5.335-2.01-10.52-3.017-15.567-3.017
			c-9.719,0-18.679,3.222-26.883,9.661c-10.129,8.817-15.194,19.521-15.194,32.111v1.171c0,14.477,6.562,26.287,19.685,35.435
			c-1.063,1.515-1.681,2.297-1.845,2.336c-8.448-5.657-14.394-13.019-17.84-22.083c-2.011-5.171-3.017-10.295-3.017-15.383v-1.844
			c0-10.624,3.917-20.527,11.751-29.715C502.936,77.57,514.047,72.672,526.721,72.672z M556.622,147.848l1.965,1.966
			c-3.813,3.858-7.359,6.563-10.642,8.122c-6.931,3.609-14.006,5.413-21.225,5.413c-3.238,0-6.601-0.41-10.088-1.229v-0.06
			c0.408-1.767,0.696-2.647,0.862-2.647c2.83,0.532,5.515,0.8,8.059,0.8h2.4c9.226,0,18.045-3.466,26.451-10.398L556.622,147.848z"
			/>
		<path fill="#FFFFFF" d="M526.721,163.582c-3.238,0-6.651-0.415-10.142-1.234l-0.18-0.044v-0.244
			c0.66-2.881,0.86-2.881,1.096-2.881c2.849,0.53,5.544,0.801,8.059,0.801h2.4c9.126,0,17.98-3.482,26.302-10.347l2.373-2.107
			l2.287,2.288l-0.163,0.166c-3.813,3.855-7.413,6.603-10.708,8.169C541.121,161.751,533.946,163.582,526.721,163.582z
			 M516.9,161.942c3.383,0.776,6.684,1.174,9.82,1.174c7.151,0,14.253-1.813,21.118-5.388c3.204-1.522,6.705-4.184,10.418-7.913
			l-1.646-1.646l-2.051,1.819c-8.415,6.942-17.364,10.457-26.605,10.457h-2.4c-2.512,0-5.196-0.263-7.987-0.782
			C517.481,159.813,517.283,160.31,516.9,161.942z M502.438,156.649l-0.086-0.056c-8.447-5.66-14.477-13.128-17.929-22.196
			c-2.007-5.171-3.028-10.373-3.028-15.466v-1.844c0-10.632,3.972-20.681,11.809-29.866c9.562-9.814,20.837-14.785,33.518-14.785
			c11.9,0,22.636,4.472,31.907,13.29l0.191,0.197v0.305l-0.053,0.065c-1.729,2.05-1.981,2.05-2.145,2.05h-0.093l-0.066-0.062
			c-4.793-4.427-9.593-7.579-14.261-9.365c-5.283-1.992-10.495-3.002-15.481-3.002c-9.615,0-18.614,3.233-26.739,9.612
			c-10.021,8.721-15.104,19.466-15.104,31.927v1.171c0,14.327,6.587,26.187,19.588,35.24l0.191,0.134l-0.137,0.194
			c-1.648,2.348-1.84,2.394-1.979,2.431L502.438,156.649z M526.721,72.906c-12.549,0-23.712,4.923-33.175,14.631
			c-7.746,9.087-11.684,19.033-11.684,29.551v1.844c0,5.035,1.011,10.18,2.996,15.296c3.399,8.932,9.327,16.294,17.623,21.887
			c0.151-0.152,0.542-0.614,1.521-1.997c-13.003-9.131-19.594-21.071-19.594-35.49v-1.171c0-12.602,5.138-23.464,15.272-32.287
			c8.222-6.452,17.317-9.719,27.039-9.719c5.044,0,10.307,1.019,15.647,3.032c4.691,1.796,9.505,4.944,14.307,9.362
			c0.139-0.098,0.556-0.46,1.653-1.755l-0.025-0.029C549.124,77.333,538.496,72.906,526.721,72.906z"/>
	</g>
	<g>
		<path fill="#FFFFFF" d="M572.491,73.961h66.44l0.309,0.308v2.462l-0.309,0.246h-66.44l-0.244-0.246v-2.462L572.491,73.961z
			 M604.484,86.081h2.459l0.244,0.186v75.422l-0.244,0.182h-2.459l-0.249-0.182V86.266L604.484,86.081z"/>
		<path fill="#FFFFFF" d="M607.023,162.105h-2.617l-0.403-0.3V86.151l0.403-0.304h2.617l0.397,0.305v75.654L607.023,162.105z
			 M604.563,161.64h2.302l0.088-0.069V86.383l-0.088-0.069h-2.302l-0.092,0.069v75.188L604.563,161.64z M639.015,77.209h-66.62
			l-0.383-0.381v-2.643l0.369-0.458h66.647l0.447,0.443v2.673L639.015,77.209z M572.591,76.742h66.26l0.157-0.125v-2.252
			l-0.171-0.171h-66.232l-0.129,0.156v2.282L572.591,76.742z"/>
	</g>
	<g>
		<path fill="#FFFFFF" d="M659.665,73.961h2.89v88.158h-2.89V73.961z"/>
		<path fill="#FFFFFF" d="M662.788,162.354h-3.358V73.728h3.358V162.354z M659.898,161.887h2.421V74.195h-2.421V161.887z"/>
	</g>
	<g>
		<path fill="#FFFFFF" d="M727.642,72.856c5.005,0,10.129,0.921,15.383,2.769l0.12,0.122v0.122
			c-0.655,1.683-1.128,2.522-1.414,2.522c-4.47-1.599-8.757-2.398-12.857-2.398h-2.644c-8.327,0-16.55,2.935-24.668,8.797
			c-10.83,8.899-16.245,19.974-16.245,33.219c0,15.218,6.852,27.376,20.547,36.481c0,0.33-0.39,1.169-1.167,2.523
			c-9.147-5.291-15.688-13.104-19.622-23.441c-1.848-5.208-2.771-10.374-2.771-15.501c0-11.607,4.14-21.962,12.427-31.068
			C704.122,77.57,715.093,72.856,727.642,72.856z M752.25,80.175c5.417,3.527,10.049,8.243,13.904,14.149
			c4.509,7.714,6.767,15.604,6.767,23.685c0,14.151-5.947,26.145-17.839,35.99c-8.531,6.151-17.681,9.228-27.44,9.228
			c-5,0-9.615-0.738-13.841-2.214c0.614-1.684,1.063-2.523,1.354-2.523c3.814,1.065,7.422,1.601,10.825,1.601h1.048l0.493,0.122
			l0.489-0.122h1.106c10.787,0,20.528-4.35,29.224-13.042c4.716-4.594,8.242-11.238,10.584-19.934
			c0.527-3.196,0.795-5.784,0.795-7.749v-2.586c0-8.816-3.176-17.367-9.531-25.653c-4.309-4.634-7.346-7.321-9.105-8.059
			l-0.127-0.123h-0.061C750.896,82.205,751.351,81.283,752.25,80.175z"/>
		<path fill="#FFFFFF" d="M727.642,163.46c-5.005,0-9.691-0.75-13.919-2.229l-0.224-0.078l0.083-0.224
			c0.904-2.468,1.282-2.673,1.573-2.673l0.063,0.007c3.777,1.056,7.398,1.591,10.763,1.591h1.048l0.488,0.115l0.437-0.105
			l1.164-0.01c10.674,0,20.448-4.363,29.058-12.971c4.668-4.546,8.206-11.218,10.523-19.829c0.521-3.153,0.791-5.748,0.791-7.689
			v-2.586c0-8.723-3.194-17.306-9.488-25.511c-4.25-4.571-7.285-7.264-9.011-7.986l-0.069-0.047l-0.058-0.058h-0.202v-0.233
			c0-0.798,0.461-1.751,1.409-2.917l0.131-0.163l0.178,0.115c5.41,3.528,10.115,8.31,13.972,14.217
			c4.518,7.726,6.806,15.735,6.806,23.813c0,14.154-6.033,26.324-17.927,36.17C746.685,160.339,737.406,163.46,727.642,163.46z
			 M714.104,160.869c4.121,1.407,8.672,2.122,13.538,2.122c9.666,0,18.852-3.09,27.302-9.182
			c11.771-9.744,17.745-21.792,17.745-35.801c0-7.993-2.268-15.924-6.737-23.567c-3.772-5.777-8.367-10.474-13.65-13.955
			c-0.718,0.913-1.107,1.688-1.165,2.306l0.078,0.076c1.817,0.781,4.807,3.431,9.145,8.097c6.375,8.304,9.595,16.984,9.595,25.813
			v2.586c0,1.967-0.266,4.587-0.798,7.788c-2.344,8.718-5.928,15.46-10.65,20.063c-8.697,8.695-18.587,13.107-29.388,13.107h-1.106
			l-0.489,0.129l-0.551-0.136l-0.99,0.007c-3.395,0-7.036-0.538-10.835-1.594C715.081,158.775,714.776,159.068,714.104,160.869z
			 M704.781,157.332l-0.203-0.115c-9.151-5.293-15.786-13.22-19.724-23.562c-1.847-5.213-2.783-10.452-2.783-15.584
			c0-11.612,4.202-22.119,12.488-31.225c9.396-9.442,20.526-14.224,33.082-14.224c5.009,0,10.208,0.937,15.457,2.783l0.09,0.054
			l0.191,0.191l-0.019,0.304c-0.957,2.464-1.345,2.669-1.631,2.669l-0.078-0.013c-4.424-1.583-8.723-2.386-12.779-2.386h-2.644
			c-8.235,0-16.489,2.946-24.534,8.755c-10.708,8.801-16.146,19.917-16.146,33.028c0,15.061,6.878,27.271,20.441,36.285l0.108,0.072
			v0.124c0,0.237-0.125,0.771-1.2,2.639L704.781,157.332z M727.642,73.089c-12.429,0-23.446,4.737-32.745,14.079
			c-8.196,9.011-12.357,19.41-12.357,30.903c0,5.078,0.925,10.268,2.756,15.423c3.866,10.156,10.367,17.961,19.315,23.198
			c0.731-1.286,0.95-1.845,1.004-2.087c-13.624-9.101-20.529-21.414-20.529-36.597c0-13.257,5.492-24.496,16.327-33.399
			c8.137-5.875,16.482-8.851,24.817-8.851h2.644c4.092,0,8.423,0.805,12.871,2.39c0.079-0.056,0.411-0.391,1.163-2.311l-0.01-0.012
			C737.711,74.01,732.582,73.089,727.642,73.089z"/>
	</g>
	<g>
		<path fill="#FFFFFF" d="M785.652,74.084h2.649l54.567,77.945c2.461,3.323,4.612,6.728,6.458,10.215l-0.125,0.12h-2.643
			c-0.696-0.696-15.199-21.407-43.495-62.134c-9.474-13.246-14.313-20.135-14.518-20.672h-0.125v82.561l-0.244,0.245h-2.525
			l-0.245-0.245V74.394L785.652,74.084z M846.56,74.084h2.522l0.245,0.309v72.712h-0.125c-1.926-1.843-2.89-2.989-2.89-3.441V74.394
			L846.56,74.084z"/>
		<path fill="#FFFFFF" d="M849.302,162.6h-2.837l-0.071-0.069c-0.715-0.72-14.954-21.052-43.521-62.166
			c-10.563-14.772-13.416-18.919-14.216-20.158v82.01l-0.381,0.383h-2.719l-0.386-0.383V74.312l0.369-0.461h2.881l0.071,0.101
			l54.567,77.945c2.456,3.319,4.638,6.767,6.472,10.238l0.083,0.151L849.302,162.6z M846.663,162.134h2.339
			c-1.799-3.377-3.923-6.728-6.322-9.966l-54.502-77.85h-2.413l-0.124,0.157v87.547l0.108,0.111h2.332l0.108-0.111V79.325h0.517
			l0.058,0.149c0.134,0.354,2.758,4.218,14.492,20.621C830.83,139.78,845.43,160.639,846.663,162.134z M849.563,147.341h-0.452
			l-0.067-0.064c-2.629-2.517-2.966-3.252-2.966-3.612V74.311l0.369-0.46h2.747l0.369,0.461V147.341z M846.546,74.475v69.189
			c0,0.166,0.256,0.789,2.548,3.013V74.475l-0.124-0.157h-2.3L846.546,74.475z"/>
	</g>
</g>
<g>
	<g>
		<g>
			<g>
				<g>
					<path fill="#FFFFFF" d="M142.819,191.368l-24.009-24.007c-15.874-15.874-11.153-46.43,10.528-68.114l34.542-34.538
						l13.817,13.813l-34.544,34.542c-13.584,13.587-18.506,32.506-10.528,40.481l24.006,24.009L142.819,191.368z M163.88,73.211
						L133.589,103.5c-19.333,19.339-24.059,46.08-10.528,59.611l19.758,19.751l5.309-5.309l-19.756-19.756
						c-10.597-10.603-5.876-32.579,10.531-48.986l30.289-30.29L163.88,73.211z"/>
				</g>
			</g>
		</g>
		<g>
			<g>
				<g>
					<path fill="#FFFFFF" d="M76.199,180.017l-13.814-13.814l34.542-34.54c9.986-9.986,22.191-16.786,34.369-19.148
						c3.136-0.609,6.236-0.917,9.211-0.917c9.811,0,18.296,3.295,24.532,9.534l24.009,24.004l-13.815,13.819l-24.006-24.009
						c-3.423-3.425-9.278-4.596-16.209-3.252c-8.39,1.626-17.011,6.522-24.276,13.783L76.199,180.017z M70.89,166.202l5.309,5.312
						l30.291-30.287c8.104-8.102,17.828-13.582,27.381-15.434c2.267-0.44,4.483-0.664,6.58-0.664c6.188,0,11.384,1.926,15.023,5.564
						l19.758,19.756l5.312-5.313l-19.758-19.751c-5.083-5.088-12.097-7.776-20.279-7.776c-2.592,0-5.305,0.273-8.067,0.806
						c-11.011,2.138-22.111,8.354-31.26,17.5L70.89,166.202z"/>
				</g>
			</g>
		</g>
		<g>
			<g>
				<g>
					<path fill="#FFFFFF" d="M66.604,170.528L52.79,156.714l34.544-34.54c6.76-6.763,11.748-15.141,13.681-22.984
						c1.801-7.315,0.793-13.551-2.761-17.106L74.635,58.467l13.817-13.815l23.619,23.617c15.66,15.659,10.756,46.039-10.923,67.72
						L66.604,170.528z M61.293,156.714l5.312,5.313l30.291-30.291c19.339-19.336,24.237-45.901,10.923-59.217L88.452,53.154
						l-5.313,5.313l19.366,19.365c5.154,5.153,6.7,13.248,4.347,22.794c-2.219,9.011-7.641,18.171-15.268,25.8L61.293,156.714z"/>
				</g>
			</g>
		</g>
		<g>
			<g>
				<g>
					<path fill="#FFFFFF" d="M89.885,123.706c-9.708,0-18.02-3.183-24.046-9.206L42.225,90.883l13.81-13.817l23.619,23.617
						c2.385,2.382,5.948,3.643,10.309,3.643c9.387,0,20.798-5.581,29.784-14.565l34.54-34.542l13.814,13.814l-34.542,34.542
						C120.955,116.181,104.624,123.706,89.885,123.706z M50.726,90.883l19.366,19.364c4.871,4.871,11.716,7.447,19.793,7.447
						c13.183,0,27.92-6.867,39.424-18.37L159.6,69.033l-5.313-5.311l-30.292,30.29c-10.069,10.071-23.109,16.327-34.032,16.327
						c-5.989,0-11.024-1.869-14.562-5.404L56.037,85.571L50.726,90.883z"/>
				</g>
			</g>
		</g>
	</g>
	<g>
		<path fill="#FFFFFF" d="M115.634,230.414c-61.979,0-112.405-50.425-112.405-112.405c0-61.979,50.425-112.403,112.405-112.403
			c61.98,0,112.405,50.424,112.405,112.403C228.04,179.989,177.614,230.414,115.634,230.414z M115.634,12.821
			c-58.001,0-105.19,47.187-105.19,105.188c0,58.004,47.189,105.191,105.19,105.191s105.188-47.188,105.188-105.191
			C220.823,60.008,173.636,12.821,115.634,12.821z"/>
	</g>
</g>
</svg>
