<?xml version="1.0" encoding="utf-8"?>
<!-- Generator: Adobe Illustrator 16.0.0, SVG Export Plug-In . SVG Version: 6.00 Build 0)  -->
<!DOCTYPE svg PUBLIC "-//W3C//DTD SVG 1.1//EN" "http://www.w3.org/Graphics/SVG/1.1/DTD/svg11.dtd">
<svg version="1.1" id="Layer_1" xmlns="http://www.w3.org/2000/svg" xmlns:xlink="http://www.w3.org/1999/xlink" x="0px" y="0px"
	 width="932.954px" height="170.991px" viewBox="0 0 932.954 170.991" enable-background="new 0 0 932.954 170.991"
	 xml:space="preserve">
<g>
	<g>
		<path fill="#FFFFFF" d="M658.738,98.228h30.244l1.814,2.691l-0.117,0.117h-32.76c-3.238,0-5.324,1.17-6.26,3.51l-8.248,19.655
			h-2.691l-0.117-0.116h-0.117c6.201-14.859,9.496-22.619,9.887-23.283C652.479,99.086,655.267,98.228,658.738,98.228z
			 M675.528,40.781h2.223c0.351,0.273,1.833,3.686,4.446,10.237c19.89,47.15,30.088,71.506,30.595,73.066v0.116h-2.69
			c-0.234,0-1.111-1.969-2.633-5.908c-20.124-47.774-30.361-72.227-30.712-73.358h-0.117l-17.315,41.477l-0.176,0.117h-2.809v-0.117
			C668.897,56.147,675.293,40.938,675.528,40.781z"/>
		<path fill="#FFFFFF" d="M712.986,124.396h-2.885c-0.217,0-0.484,0-2.814-6.032c-19.333-45.897-29.367-69.854-30.597-73.045
			L659.48,86.54l-0.273,0.182h-3.061l0.015-0.385c18.857-45.449,19.118-45.624,19.259-45.717l0.049-0.033h2.349l0.053,0.041
			c0.265,0.206,1.016,1.564,4.508,10.318c19.795,46.928,30.091,71.516,30.599,73.078l0.01,0.061V124.396z M710.149,124.007h2.409
			c-0.918-2.518-11.188-27.035-30.541-72.913c-3.188-7.992-4.098-9.806-4.348-10.118h-2.036c-0.667,1.239-7.072,16.49-19.051,45.357
			h2.507l0.077-0.051l17.343-41.542h0.391l0.042,0.137c0.347,1.119,10.678,25.794,30.706,73.341
			C709.473,122.946,710,123.853,710.149,124.007z M643.541,124.396h-2.9l-0.117-0.117h-0.328l0.112-0.269
			c6.262-15.006,9.499-22.629,9.898-23.307l0.044-0.052c2.133-1.737,4.988-2.618,8.488-2.618h30.348l1.961,2.909l-0.287,0.287
			h-32.84c-3.179,0-5.168,1.108-6.079,3.389L643.541,124.396z M640.801,124.007h2.481l8.197-19.536
			c0.963-2.407,3.13-3.63,6.439-3.63h32.59l-1.631-2.419h-30.141c-3.393,0-6.156,0.844-8.214,2.507
			c-0.452,0.826-3.739,8.57-9.773,23.027L640.801,124.007z"/>
	</g>
	<g>
		<path fill="#FFFFFF" d="M726.714,109.46c2.809,5.227,8.326,9.223,16.556,11.992c3.587,0.897,6.999,1.346,10.237,1.346h1.287
			l3.451-0.117l0.468,2.749l-0.116,0.176l-3.452,0.117h-2.106c-9.164,0-17.296-3.062-24.394-9.185
			c-2.691-2.925-4.174-4.895-4.446-5.908C725.641,109.85,726.48,109.46,726.714,109.46z M743.738,41.016
			c0.155,0,0.331,0.877,0.526,2.632c-9.517,3.238-14.273,8.19-14.273,14.859v1.229c0,7.566,6.317,13.299,18.954,17.198
			c10.217,3.198,17.471,5.831,21.762,7.897c8.852,4.642,13.279,10.822,13.279,18.545v1.111c0,7.449-3.939,13.221-11.817,17.315
			c-1.521,0.741-2.964,1.326-4.329,1.755c-0.156-0.272-0.332-1.189-0.526-2.749c9.243-3.394,13.864-8.931,13.864-16.614v-0.585
			c0-8.307-5.986-14.604-17.959-18.896c-3.822-1.403-9.711-3.354-17.667-5.85c-4.524-1.599-8.58-3.744-12.168-6.435
			c-4.251-3.666-6.376-8.111-6.376-13.338c0-8.424,5.265-14.371,15.795-17.843L743.738,41.016z M753.273,39.611
			c11.271,0,20.338,3.549,27.203,10.647c-1.016,1.209-1.736,1.813-2.165,1.813c-6.396-6.396-14.646-9.594-24.745-9.594
			c-0.117-0.272-0.293-1.189-0.527-2.749l0.117-0.117H753.273z"/>
		<path fill="#FFFFFF" d="M755.148,125.917h-2.109c-9.17,0-17.42-3.106-24.521-9.232c-2.755-2.992-4.224-4.951-4.507-6.005
			l-0.04-0.148l0.136-0.073c1.957-1.058,2.422-1.193,2.607-1.193h0.116l0.055,0.103c2.771,5.157,8.304,9.161,16.446,11.9
			c3.538,0.885,6.967,1.335,10.176,1.335h1.287l3.614-0.122l0.509,2.993l-0.215,0.322L755.148,125.917z M724.432,110.725
			c0.36,1.021,1.824,2.93,4.356,5.682c7.012,6.048,15.176,9.122,24.25,9.122h2.104l3.348-0.114l0.02-0.027l-0.427-2.507
			l-3.282,0.111h-1.293c-3.241,0-6.701-0.454-10.285-1.351c-8.188-2.755-13.772-6.779-16.612-11.966
			C726.401,109.735,725.855,109.96,724.432,110.725z M767.749,123.79l-0.077-0.136c-0.109-0.189-0.285-0.688-0.551-2.821
			l-0.02-0.154l0.145-0.053c9.115-3.346,13.737-8.874,13.737-16.432v-0.585c0-8.177-5.999-14.472-17.83-18.712
			c-3.802-1.396-9.743-3.364-17.659-5.848c-4.527-1.6-8.639-3.774-12.227-6.465c-4.286-3.694-6.454-8.231-6.454-13.493
			c0-8.478,5.358-14.542,15.928-18.027l0.95-0.237c0.268-0.003,0.454-0.006,0.767,2.799l0.017,0.155l-0.147,0.051
			c-9.384,3.192-14.142,8.13-14.142,14.675v1.229c0,7.436,6.33,13.16,18.816,17.013c10.18,3.187,17.51,5.847,21.789,7.908
			c8.887,4.659,13.389,10.956,13.389,18.72v1.111c0,7.492-4.01,13.376-11.921,17.488c-1.526,0.744-2.992,1.338-4.36,1.768
			L767.749,123.79z M767.525,120.938c0.186,1.448,0.326,2.1,0.423,2.382c1.302-0.42,2.692-0.988,4.136-1.691
			c7.768-4.037,11.707-9.805,11.707-17.141v-1.111c0-7.607-4.432-13.789-13.175-18.373c-4.257-2.05-11.569-4.703-21.729-7.884
			c-12.667-3.909-19.09-9.758-19.09-17.384v-1.229c0-6.695,4.797-11.738,14.257-14.992c-0.187-1.636-0.32-2.135-0.384-2.287
			l-0.82,0.21c-10.379,3.423-15.647,9.363-15.647,17.654c0,5.144,2.122,9.581,6.309,13.19c3.546,2.659,7.622,4.814,12.105,6.398
			c7.916,2.484,13.862,4.453,17.669,5.852c12.002,4.301,18.087,10.719,18.087,19.077v0.585
			C781.372,111.892,776.712,117.523,767.525,120.938z M778.311,52.266h-0.081l-0.057-0.057c-6.328-6.328-14.608-9.537-24.607-9.537
			h-0.129l-0.051-0.118c-0.125-0.292-0.301-1.207-0.539-2.797l-0.016-0.097l0.244-0.243h0.197c11.271,0,20.471,3.602,27.342,10.706
			l0.123,0.126l-0.113,0.134C779.208,52.071,778.626,52.266,778.311,52.266z M753.703,42.284
			c10.012,0.029,18.313,3.253,24.681,9.585c0.241-0.049,0.761-0.35,1.83-1.602c-6.782-6.942-15.845-10.462-26.94-10.462h-0.025
			C753.48,41.345,753.621,42.008,753.703,42.284z"/>
	</g>
	<g>
		<path fill="#FFFFFF" d="M804.226,40.489h2.75v83.83h-2.75V40.489z"/>
		<path fill="#FFFFFF" d="M807.169,124.513h-3.138V40.294h3.138V124.513z M804.42,124.124h2.36V40.683h-2.36V124.124z"/>
	</g>
	<g>
		<path fill="#FFFFFF" d="M843.655,98.228h30.244l1.813,2.691l-0.117,0.117h-32.76c-3.237,0-5.323,1.17-6.26,3.51l-8.248,19.655
			h-2.691l-0.116-0.116h-0.117c6.201-14.859,9.496-22.619,9.886-23.283C837.396,99.086,840.183,98.228,843.655,98.228z
			 M860.444,40.781h2.224c0.351,0.273,1.832,3.686,4.445,10.237c19.891,47.15,30.088,71.506,30.596,73.066v0.116h-2.691
			c-0.234,0-1.111-1.969-2.633-5.908c-20.123-47.774-30.361-72.227-30.712-73.358h-0.116L844.24,86.411l-0.176,0.117h-2.808v-0.117
			C853.814,56.147,860.21,40.938,860.444,40.781z"/>
		<path fill="#FFFFFF" d="M897.902,124.396h-2.885c-0.216,0-0.484,0-2.813-6.032c-19.069-45.269-29.351-69.816-30.597-73.045
			L844.396,86.54l-0.273,0.182h-3.061l0.015-0.385c18.858-45.449,19.119-45.624,19.259-45.717l0.049-0.033h2.35l0.053,0.041
			c0.264,0.206,1.016,1.564,4.507,10.318c19.794,46.924,30.09,71.512,30.6,73.078l0.009,0.061V124.396z M895.066,124.007h2.409
			c-0.92-2.521-11.189-27.038-30.542-72.913c-3.188-7.992-4.098-9.807-4.348-10.118h-2.035c-0.482,0.904-4.281,9.761-19.051,45.357
			h2.506l0.078-0.051l17.343-41.542h0.39l0.042,0.137c0.349,1.122,10.679,25.797,30.706,73.341
			C894.39,122.946,894.916,123.853,895.066,124.007z M828.457,124.396h-2.9l-0.117-0.117h-0.328l0.113-0.269
			c6.262-15.007,9.5-22.63,9.897-23.307l0.045-0.052c2.132-1.737,4.988-2.618,8.488-2.618h30.348l1.961,2.91l-0.288,0.286h-32.84
			c-3.178,0-5.167,1.108-6.078,3.389L828.457,124.396z M825.717,124.007h2.481l8.198-19.536c0.963-2.407,3.13-3.63,6.438-3.63h32.59
			l-1.63-2.419h-30.141c-3.393,0-6.156,0.844-8.215,2.507c-0.452,0.825-3.738,8.569-9.772,23.027L825.717,124.007z"/>
	</g>
</g>
<g>
	<g>
		<g>
			<path fill="#FFFFFF" d="M38.515,121.314h8.27c7.585,0,14.061-2.681,19.422-8.044c5.4-5.4,8.101-11.895,8.101-19.476V41.682h2.699
				v52.113c0,8.349-2.949,15.453-8.847,21.314c-5.938,5.937-13.062,8.906-21.375,8.906h-8.27V121.314z"/>
		</g>
		<g>
			<path fill="#FFFFFF" d="M46.785,124.21h-8.464v-3.09h8.464c7.499,0,13.987-2.688,19.284-7.987
				c5.338-5.338,8.044-11.844,8.044-19.338V41.487h3.088v52.308c0,8.362-2.996,15.58-8.904,21.452
				C62.347,121.194,55.109,124.21,46.785,124.21z M38.709,123.821h8.075c8.218,0,15.363-2.978,21.237-8.85
				c5.833-5.797,8.79-12.922,8.79-21.177V41.876h-2.311v51.919c0,7.601-2.745,14.2-8.157,19.612
				c-5.374,5.376-11.954,8.102-19.56,8.102h-8.075V123.821z"/>
		</g>
	</g>
	<g>
		<g>
			<path fill="#FFFFFF" d="M90.854,41.856h2.357l0.23,0.286v51.364c0,7.89,2.029,14.096,6.09,18.616
				c2.221,2.603,4.232,4.46,6.031,5.572v0.114l-0.575,2.815c-9.577-6.167-14.363-14.997-14.363-26.487V42.143L90.854,41.856z
				 M147.848,41.856h2.471l0.23,0.286v50.616c0,7.699-1.417,13.637-4.253,17.811c-6.433,9.579-15.034,14.365-25.794,14.365
				c-4.023-0.154-6.283-0.441-6.781-0.861c0.229-1.726,0.479-2.586,0.747-2.586c2.106,0.459,4.156,0.688,6.148,0.688
				c9.997,0,17.924-4.654,23.787-13.961c2.142-3.982,3.215-8.044,3.215-12.179V42.143L147.848,41.856z"/>
		</g>
		<g>
			<path fill="#FFFFFF" d="M120.502,125.128h-0.007c-5.47-0.209-6.558-0.617-6.899-0.906l-0.081-0.068l0.014-0.105
				c0.306-2.295,0.586-2.756,0.94-2.756c2.121,0.459,4.175,0.689,6.148,0.689c9.876,0,17.824-4.667,23.623-13.87
				c2.112-3.927,3.186-7.993,3.186-12.075V42.074l0.331-0.412h2.657l0.331,0.412v50.685c0,7.705-1.442,13.734-4.287,17.92
				C140.018,120.267,131.285,125.128,120.502,125.128z M113.929,123.981c0.448,0.26,1.99,0.582,6.576,0.758
				c10.644-0.001,19.267-4.805,25.629-14.279c2.801-4.12,4.22-10.075,4.22-17.701V42.211l-0.129-0.16h-2.284l-0.129,0.16v53.825
				c0,4.146-1.089,8.275-3.239,12.271c-5.881,9.336-13.939,14.063-23.958,14.063c-1.983,0-4.048-0.229-6.138-0.682
				C114.407,121.757,114.184,122.117,113.929,123.981z M105.121,120.942l-0.238-0.154c-9.59-6.176-14.453-15.142-14.453-26.65
				V42.074l0.331-0.412h2.543l0.331,0.412v51.433c0,7.805,2.033,14.024,6.041,18.486c2.2,2.578,4.214,4.439,5.989,5.537l0.092,0.057
				v0.223L105.121,120.942z M90.818,42.211v51.927c0,11.272,4.722,20.074,14.036,26.169l0.511-2.505
				c-1.787-1.126-3.798-2.993-5.982-5.553c-4.071-4.531-6.137-10.838-6.137-18.742V42.211l-0.129-0.16h-2.17L90.818,42.211z"/>
		</g>
	</g>
	<g>
		<g>
			<path fill="#FFFFFF" d="M164.452,41.796h2.472l50.96,72.795c2.299,3.104,4.31,6.282,6.033,9.539l-0.114,0.114h-2.471
				c-0.649-0.653-14.191-19.996-40.622-58.03c-8.846-12.371-13.365-18.805-13.558-19.305h-0.114v77.106l-0.229,0.229h-2.357
				l-0.229-0.229V42.086L164.452,41.796z M221.333,41.796h2.354l0.231,0.29v67.909h-0.114c-1.802-1.723-2.701-2.793-2.701-3.217
				V42.086L221.333,41.796z"/>
		</g>
		<g>
			<path fill="#FFFFFF" d="M223.883,124.438h-2.632l-0.057-0.057c-0.66-0.664-14.335-20.197-40.644-58.056
				c-10.075-14.088-12.637-17.825-13.318-18.891v76.662l-0.344,0.342h-2.518l-0.343-0.342V42.019l0.33-0.417h2.668l0.058,0.083
				l50.96,72.796c2.294,3.097,4.329,6.314,6.045,9.56l0.067,0.127L223.883,124.438z M221.419,124.05h2.235
				c-1.688-3.17-3.682-6.312-5.926-9.342l-50.906-72.717h-2.276l-0.129,0.164v81.78l0.116,0.115h2.196l0.115-0.115V46.715h0.442
				l0.048,0.125c0.128,0.332,2.58,3.942,13.535,19.262C206.667,103.227,220.303,122.712,221.419,124.05z M224.112,110.189h-0.387
				l-0.056-0.054c-2.447-2.339-2.761-3.023-2.761-3.357v-64.76l0.331-0.417h2.541l0.332,0.417V110.189z M221.297,42.154v64.624
				c0,0.16,0.242,0.76,2.426,2.87V42.154l-0.131-0.164h-2.166L221.297,42.154z"/>
		</g>
	</g>
	<g>
		<g>
			<path fill="#FFFFFF" d="M278.039,40.478c11.106,0,20.99,4.116,29.649,12.35l0.11,0.115v0.117
				c-1.032,1.225-1.646,1.837-1.836,1.837c-4.52-4.174-8.984-7.104-13.386-8.79c-4.98-1.876-9.825-2.817-14.537-2.817
				c-9.077,0-17.446,3.01-25.108,9.023c-9.461,8.234-14.19,18.231-14.19,29.99v1.092c0,13.522,6.126,24.553,18.383,33.092
				c-0.995,1.418-1.57,2.146-1.721,2.184c-7.891-5.283-13.444-12.159-16.662-20.625c-1.878-4.826-2.816-9.614-2.816-14.364v-1.723
				c0-9.922,3.657-19.171,10.975-27.751C255.824,45.052,266.203,40.478,278.039,40.478z M305.962,110.687l1.836,1.836
				c-3.561,3.603-6.875,6.129-9.938,7.584c-6.472,3.371-13.081,5.057-19.821,5.057c-3.027,0-6.166-0.383-9.421-1.147v-0.058
				c0.381-1.647,0.649-2.471,0.804-2.471c2.644,0.497,5.149,0.746,7.528,0.746h2.24c8.618,0,16.852-3.235,24.705-9.711
				L305.962,110.687z"/>
		</g>
		<g>
			<path fill="#FFFFFF" d="M278.039,125.357c-3.023,0-6.208-0.388-9.466-1.152l-0.15-0.035v-0.212
				c0.612-2.666,0.799-2.666,0.998-2.666c2.657,0.497,5.177,0.747,7.528,0.747h2.24c8.532,0,16.803-3.252,24.581-9.666l2.2-1.954
				l2.103,2.104l-0.136,0.137c-3.555,3.597-6.917,6.161-9.993,7.623C291.481,123.649,284.782,125.357,278.039,125.357z
				 M268.838,123.867c3.168,0.731,6.262,1.102,9.201,1.102c6.68,0,13.318-1.694,19.731-5.034c3.002-1.427,6.281-3.919,9.754-7.411
				l-1.57-1.569l-1.931,1.714c-7.855,6.478-16.209,9.76-24.834,9.76h-2.24c-2.348,0-4.862-0.247-7.474-0.733
				C269.399,121.821,269.212,122.272,268.838,123.867z M255.367,118.88l-0.071-0.047c-7.887-5.281-13.518-12.251-16.736-20.718
				c-1.876-4.823-2.829-9.681-2.829-14.434v-1.723c0-9.924,3.708-19.303,11.021-27.877c8.926-9.159,19.45-13.798,31.287-13.798
				c11.107,0,21.128,4.173,29.784,12.404l0.17,0.178v0.267l-0.046,0.054c-1.605,1.906-1.843,1.906-1.985,1.906h-0.076l-0.056-0.052
				c-4.48-4.137-8.962-7.081-13.324-8.751c-4.939-1.861-9.807-2.805-14.467-2.805c-8.988,0-17.395,3.022-24.988,8.982
				c-9.364,8.15-14.116,18.19-14.116,29.837v1.092c0,13.393,6.157,24.473,18.3,32.933l0.16,0.111l-0.112,0.16
				c-1.534,2.187-1.715,2.231-1.834,2.26L255.367,118.88z M278.039,40.672c-11.728,0-22.158,4.6-31,13.671
				c-7.243,8.492-10.919,17.786-10.919,27.615v1.723c0,4.705,0.943,9.515,2.803,14.294c3.175,8.352,8.719,15.234,16.479,20.46
				c0.136-0.131,0.501-0.553,1.451-1.9c-12.148-8.522-18.306-19.671-18.306-33.14v-1.092c0-11.764,4.796-21.903,14.256-30.136
				c7.671-6.021,16.159-9.071,25.236-9.071c4.708,0,9.622,0.952,14.605,2.83c4.381,1.677,8.877,4.621,13.365,8.751
				c0.127-0.084,0.519-0.414,1.581-1.67l-0.042-0.044C298.974,44.81,289.043,40.672,278.039,40.672z"/>
		</g>
	</g>
	<g>
		<g>
			<path fill="#FFFFFF" d="M320.784,41.682h62.05l0.288,0.288v2.299l-0.288,0.23h-62.05l-0.231-0.23v-2.299L320.784,41.682z
				 M350.662,53h2.297l0.229,0.175v70.438l-0.229,0.172h-2.297l-0.231-0.172V53.175L350.662,53z"/>
		</g>
		<g>
			<path fill="#FFFFFF" d="M353.024,123.978h-2.427l-0.361-0.268V53.078l0.36-0.272h2.428l0.357,0.273v70.63L353.024,123.978z
				 M350.727,123.589h2.168l0.099-0.074V53.271l-0.1-0.076h-2.167l-0.102,0.077v70.243L350.727,123.589z M382.903,44.692h-62.199
				l-0.345-0.344v-2.448l0.332-0.414h62.224l0.401,0.401v2.473L382.903,44.692z M320.865,44.304h61.901l0.162-0.129V42.05
				l-0.174-0.174h-61.876l-0.13,0.162v2.15L320.865,44.304z"/>
		</g>
	</g>
	<g>
		<g>
			<path fill="#FFFFFF" d="M402.197,41.682h2.701v82.334h-2.701V41.682z"/>
		</g>
		<g>
			<path fill="#FFFFFF" d="M405.092,124.21h-3.09V41.487h3.09V124.21z M402.391,123.821h2.312V41.876h-2.312V123.821z"/>
		</g>
	</g>
	<g>
		<g>
			<path fill="#FFFFFF" d="M465.683,40.649c4.674,0,9.461,0.86,14.364,2.585l0.115,0.115v0.114
				c-0.611,1.572-1.053,2.355-1.322,2.355c-4.173-1.493-8.178-2.24-12.007-2.24h-2.469c-7.779,0-15.454,2.74-23.04,8.217
				c-10.114,8.312-15.169,18.653-15.169,31.024c0,14.21,6.397,25.566,19.188,34.069c0,0.31-0.363,1.094-1.09,2.358
				c-8.543-4.941-14.65-12.239-18.327-21.893c-1.727-4.863-2.586-9.688-2.586-14.476c0-10.842,3.867-20.511,11.607-29.017
				C443.715,45.052,453.964,40.649,465.683,40.649z M488.666,47.485c5.057,3.295,9.383,7.699,12.984,13.214
				c4.212,7.204,6.32,14.573,6.32,22.121c0,13.216-5.556,24.416-16.662,33.612c-7.969,5.744-16.51,8.617-25.625,8.617
				c-4.672,0-8.98-0.69-12.927-2.069c0.575-1.57,0.996-2.354,1.264-2.354c3.563,0.997,6.933,1.495,10.112,1.495h0.977l0.459,0.113
				l0.461-0.113h1.032c10.073,0,19.171-4.062,27.292-12.18c4.404-4.292,7.698-10.498,9.885-18.617
				c0.494-2.986,0.744-5.402,0.744-7.238V81.67c0-8.234-2.968-16.219-8.906-23.958c-4.021-4.33-6.856-6.838-8.502-7.526
				l-0.117-0.115H487.4C487.4,49.381,487.823,48.52,488.666,47.485z"/>
		</g>
		<g>
			<path fill="#FFFFFF" d="M465.683,125.243c-4.67,0-9.041-0.699-12.991-2.08l-0.187-0.064l0.068-0.186
				c0.838-2.291,1.186-2.482,1.447-2.482l0.052,0.007c3.529,0.987,6.914,1.487,10.06,1.487h0.977l0.458,0.108l0.416-0.103
				l1.078-0.006c9.973,0,19.108-4.078,27.154-12.122c4.358-4.247,7.667-10.481,9.834-18.53c0.488-2.949,0.737-5.374,0.737-7.188
				V81.67c0-8.152-2.982-16.173-8.865-23.839c-3.97-4.273-6.808-6.79-8.423-7.466l-0.062-0.041l-0.06-0.059h-0.171v-0.194
				c0-0.741,0.428-1.626,1.308-2.708l0.11-0.136l0.146,0.096c5.055,3.293,9.442,7.758,13.041,13.271
				c4.217,7.21,6.352,14.686,6.352,22.227c0,13.21-5.629,24.569-16.732,33.761C483.456,122.331,474.796,125.243,465.683,125.243z
				 M453.007,122.861c3.859,1.322,8.123,1.993,12.675,1.993c9.03,0,17.614-2.887,25.511-8.58
				c10.999-9.107,16.581-20.366,16.581-33.455c0-7.471-2.117-14.881-6.293-22.022c-3.529-5.405-7.828-9.799-12.775-13.053
				c-0.686,0.869-1.057,1.606-1.106,2.195l0.084,0.082c1.672,0.718,4.542,3.261,8.534,7.559c5.948,7.75,8.957,15.851,8.957,24.09
				v2.415c0,1.835-0.251,4.281-0.746,7.27c-2.189,8.137-5.533,14.43-9.941,18.725c-8.119,8.118-17.348,12.234-27.427,12.234h-1.032
				l-0.461,0.12l-0.506-0.125l-0.93,0.005c-3.168,0-6.574-0.501-10.122-1.489C453.945,120.861,453.657,121.12,453.007,122.861z
				 M444.325,119.513l-0.169-0.098c-8.54-4.939-14.734-12.338-18.411-21.991c-1.725-4.858-2.599-9.751-2.599-14.545
				c0-10.84,3.922-20.647,11.658-29.148c8.769-8.811,19.156-13.275,30.878-13.275c4.677,0,9.532,0.874,14.428,2.597l0.074,0.046
				l0.17,0.172l-0.013,0.265c-0.847,2.179-1.223,2.479-1.503,2.479l-0.066-0.011c-4.133-1.479-8.15-2.229-11.94-2.229h-2.469
				c-7.695,0-15.408,2.752-22.925,8.18c-10.009,8.225-15.089,18.612-15.089,30.866c0,14.074,6.427,25.482,19.102,33.907l0.087,0.058
				v0.104c0,0.221-0.116,0.715-1.116,2.455L444.325,119.513z M465.683,40.844c-11.616,0-21.91,4.426-30.597,13.155
				c-7.662,8.42-11.551,18.139-11.551,28.88c0,4.75,0.866,9.598,2.575,14.412c3.618,9.499,9.698,16.797,18.072,21.69
				c0.706-1.244,0.908-1.772,0.955-1.995c-12.725-8.496-19.176-19.99-19.176-34.166c0-12.375,5.128-22.864,15.24-31.174
				c7.595-5.484,15.385-8.261,23.163-8.261h2.469c3.819,0,7.863,0.751,12.021,2.233c0.078-0.045,0.392-0.339,1.113-2.188
				l-0.025-0.026C475.099,41.705,470.302,40.844,465.683,40.844z"/>
		</g>
	</g>
	<g>
		<g>
			<path fill="#FFFFFF" d="M519.861,41.796h2.473l50.963,72.795c2.297,3.104,4.309,6.282,6.031,9.539l-0.116,0.114h-2.47
				c-0.652-0.653-14.192-19.996-40.619-58.03c-8.85-12.371-13.37-18.805-13.562-19.305h-0.114v77.106l-0.229,0.229h-2.357
				l-0.229-0.229V42.086L519.861,41.796z M576.742,41.796h2.355l0.23,0.29v67.909h-0.116c-1.8-1.723-2.7-2.793-2.7-3.217V42.086
				L576.742,41.796z"/>
		</g>
		<g>
			<path fill="#FFFFFF" d="M579.291,124.438h-2.629l-0.057-0.057c-0.67-0.67-13.964-19.66-40.643-58.056
				c-9.752-13.634-12.557-17.69-13.321-18.894v76.664l-0.342,0.343h-2.52l-0.342-0.343V42.02l0.328-0.417h2.668l0.058,0.083
				l50.963,72.796c2.295,3.1,4.33,6.317,6.045,9.56l0.067,0.128L579.291,124.438z M576.829,124.05h2.235
				c-1.686-3.166-3.679-6.309-5.924-9.342l-50.908-72.717h-2.277l-0.128,0.163v81.782l0.114,0.114h2.197l0.114-0.114v-77.22h0.442
				l0.048,0.125c0.184,0.479,4.738,6.96,13.538,19.262C562.078,103.229,575.712,122.716,576.829,124.05z M579.521,110.189h-0.388
				l-0.057-0.054c-2.446-2.343-2.761-3.025-2.761-3.357v-64.76l0.332-0.417h2.543l0.33,0.417V110.189z M576.705,42.154v64.624
				c0,0.159,0.242,0.756,2.428,2.871V42.154l-0.129-0.164h-2.168L576.705,42.154z"/>
		</g>
	</g>
</g>
<g>
	<g>
		<rect x="609.595" y="16.821" fill="#FFFFFF" width="2" height="132.918"/>
	</g>
</g>
</svg>
