<?xml version="1.0" encoding="utf-8"?>
<!-- Generator: Adobe Illustrator 16.0.0, SVG Export Plug-In . SVG Version: 6.00 Build 0)  -->
<!DOCTYPE svg PUBLIC "-//W3C//DTD SVG 1.1//EN" "http://www.w3.org/Graphics/SVG/1.1/DTD/svg11.dtd">
<svg version="1.1" id="Layer_1" xmlns="http://www.w3.org/2000/svg" xmlns:xlink="http://www.w3.org/1999/xlink" x="0px" y="0px"
	 width="1119.977px" height="170.992px" viewBox="0 0 1119.977 170.992" enable-background="new 0 0 1119.977 170.992"
	 xml:space="preserve">
<g>
	<g>
		<path fill="#FFFFFF" d="M658.739,98.228h30.244l1.812,2.691l-0.117,0.117h-32.76c-3.238,0-5.324,1.17-6.26,3.51l-8.248,19.654
			h-2.691l-0.115-0.115h-0.117c6.201-14.859,9.496-22.619,9.887-23.283C652.479,99.085,655.268,98.228,658.739,98.228z
			 M675.528,40.781h2.223c0.352,0.273,1.834,3.686,4.447,10.237c19.889,47.149,30.088,71.506,30.594,73.065v0.117h-2.689
			c-0.234,0-1.111-1.97-2.633-5.908c-20.125-47.774-30.361-72.228-30.713-73.358h-0.117l-17.314,41.478l-0.176,0.116h-2.809v-0.116
			C668.897,56.147,675.293,40.938,675.528,40.781z"/>
		<path fill="#FFFFFF" d="M712.987,124.396h-2.885c-0.219,0-0.484,0-2.814-6.031C687.954,72.467,677.92,48.51,676.69,45.319
			l-17.209,41.222l-0.273,0.182h-3.061l0.014-0.385c18.857-45.449,19.119-45.625,19.26-45.717l0.049-0.033h2.35l0.053,0.041
			c0.264,0.206,1.016,1.564,4.508,10.318c19.795,46.929,30.09,71.517,30.6,73.078l0.01,0.062v0.311H712.987z M710.149,124.007h2.408
			c-0.918-2.518-11.188-27.035-30.541-72.914c-3.188-7.992-4.098-9.806-4.348-10.118h-2.035c-0.668,1.239-7.072,16.49-19.051,45.357
			h2.506l0.078-0.051l17.342-41.542h0.393l0.041,0.137c0.348,1.119,10.678,25.794,30.707,73.341
			C709.473,122.946,710,123.853,710.149,124.007z M643.542,124.396h-2.9l-0.117-0.117h-0.328l0.111-0.27
			c6.264-15.006,9.5-22.629,9.898-23.307l0.045-0.052c2.133-1.737,4.988-2.618,8.488-2.618h30.348l1.961,2.909l-0.287,0.287h-32.84
			c-3.18,0-5.168,1.108-6.08,3.39L643.542,124.396z M640.801,124.007h2.48l8.197-19.536c0.963-2.407,3.131-3.63,6.439-3.63h32.59
			l-1.631-2.42h-30.141c-3.395,0-6.156,0.845-8.215,2.508c-0.451,0.826-3.738,8.57-9.773,23.027L640.801,124.007z"/>
	</g>
	<g>
		<path fill="#FFFFFF" d="M726.713,109.46c2.811,5.227,8.326,9.223,16.557,11.992c3.588,0.896,7,1.346,10.236,1.346h1.287
			l3.451-0.117l0.469,2.749l-0.117,0.176l-3.451,0.117h-2.105c-9.164,0-17.297-3.062-24.395-9.185
			c-2.691-2.926-4.174-4.896-4.445-5.908C725.641,109.85,726.481,109.46,726.713,109.46z M743.739,41.016
			c0.154,0,0.33,0.877,0.525,2.632c-9.518,3.238-14.273,8.19-14.273,14.859v1.229c0,7.566,6.316,13.299,18.955,17.198
			c10.217,3.198,17.471,5.831,21.762,7.897c8.852,4.642,13.279,10.822,13.279,18.545v1.11c0,7.449-3.939,13.222-11.818,17.315
			c-1.52,0.74-2.963,1.326-4.328,1.755c-0.156-0.272-0.332-1.188-0.525-2.749c9.242-3.395,13.863-8.932,13.863-16.614v-0.585
			c0-8.307-5.986-14.604-17.959-18.896c-3.822-1.403-9.711-3.354-17.668-5.85c-4.523-1.599-8.58-3.744-12.168-6.435
			c-4.25-3.666-6.375-8.111-6.375-13.338c0-8.424,5.266-14.371,15.795-17.843L743.739,41.016z M753.274,39.611
			c11.27,0,20.338,3.549,27.203,10.647c-1.018,1.209-1.736,1.813-2.166,1.813c-6.396-6.396-14.646-9.594-24.744-9.594
			c-0.117-0.272-0.293-1.189-0.527-2.749l0.117-0.117H753.274z"/>
		<path fill="#FFFFFF" d="M755.149,125.917h-2.109c-9.17,0-17.42-3.106-24.521-9.232c-2.756-2.992-4.225-4.951-4.508-6.005
			l-0.039-0.147l0.137-0.074c1.957-1.058,2.422-1.192,2.605-1.192h0.117l0.055,0.103c2.771,5.157,8.305,9.162,16.445,11.9
			c3.539,0.885,6.967,1.335,10.176,1.335h1.287l3.615-0.122l0.508,2.993l-0.215,0.321L755.149,125.917z M724.432,110.725
			c0.359,1.021,1.824,2.931,4.355,5.683c7.012,6.047,15.176,9.121,24.25,9.121h2.105l3.348-0.113l0.02-0.027l-0.428-2.508
			l-3.281,0.111h-1.293c-3.24,0-6.701-0.453-10.285-1.351c-8.188-2.755-13.771-6.779-16.611-11.966
			C726.401,109.735,725.856,109.96,724.432,110.725z M767.749,123.791l-0.076-0.137c-0.109-0.189-0.285-0.688-0.551-2.82
			l-0.021-0.154l0.146-0.053c9.115-3.346,13.736-8.875,13.736-16.433v-0.585c0-8.177-5.998-14.472-17.83-18.712
			c-3.803-1.396-9.742-3.364-17.658-5.848c-4.527-1.6-8.639-3.774-12.229-6.465c-4.285-3.694-6.453-8.231-6.453-13.493
			c0-8.478,5.357-14.542,15.928-18.027l0.951-0.237c0.268-0.003,0.453-0.006,0.766,2.799l0.018,0.155l-0.146,0.051
			c-9.385,3.192-14.143,8.13-14.143,14.675v1.229c0,7.436,6.33,13.16,18.816,17.013c10.18,3.187,17.51,5.847,21.789,7.908
			c8.887,4.659,13.389,10.956,13.389,18.719v1.111c0,7.492-4.01,13.377-11.922,17.488c-1.525,0.744-2.992,1.338-4.359,1.768
			L767.749,123.791z M767.526,120.938c0.186,1.448,0.326,2.101,0.422,2.382c1.303-0.42,2.691-0.988,4.137-1.691
			c7.768-4.037,11.707-9.805,11.707-17.141v-1.111c0-7.606-4.432-13.789-13.176-18.373c-4.256-2.05-11.568-4.703-21.729-7.884
			c-12.668-3.909-19.09-9.758-19.09-17.384v-1.229c0-6.695,4.797-11.738,14.256-14.992c-0.186-1.636-0.318-2.135-0.383-2.287
			l-0.82,0.21c-10.379,3.423-15.646,9.363-15.646,17.654c0,5.144,2.121,9.581,6.309,13.19c3.547,2.659,7.621,4.814,12.105,6.398
			c7.916,2.484,13.861,4.453,17.668,5.852c12.002,4.301,18.088,10.719,18.088,19.077v0.585
			C781.372,111.892,776.711,117.523,767.526,120.938z M778.311,52.266h-0.08l-0.059-0.057c-6.328-6.328-14.607-9.537-24.605-9.537
			h-0.129l-0.053-0.118c-0.125-0.292-0.301-1.207-0.539-2.797l-0.016-0.097l0.244-0.243h0.197c11.271,0,20.471,3.602,27.342,10.706
			l0.123,0.126l-0.113,0.134C779.208,52.071,778.625,52.266,778.311,52.266z M753.704,42.284c10.012,0.029,18.312,3.253,24.68,9.585
			c0.242-0.049,0.762-0.35,1.83-1.602c-6.781-6.942-15.844-10.462-26.939-10.462h-0.025
			C753.481,41.345,753.622,42.008,753.704,42.284z"/>
	</g>
	<g>
		<path fill="#FFFFFF" d="M804.227,40.489h2.75v83.83h-2.75V40.489z"/>
		<path fill="#FFFFFF" d="M807.168,124.513h-3.137V40.294h3.137V124.513z M804.42,124.125h2.359V40.683h-2.359V124.125z"/>
	</g>
	<g>
		<path fill="#FFFFFF" d="M843.655,98.228h30.244l1.812,2.691l-0.117,0.117h-32.76c-3.236,0-5.322,1.17-6.26,3.51l-8.248,19.654
			h-2.691l-0.115-0.115h-0.117c6.201-14.859,9.496-22.619,9.887-23.283C837.397,99.085,840.182,98.228,843.655,98.228z
			 M860.444,40.781h2.225c0.352,0.273,1.832,3.686,4.445,10.237c19.891,47.149,30.088,71.506,30.596,73.065v0.117h-2.691
			c-0.234,0-1.111-1.97-2.633-5.908c-20.123-47.774-30.361-72.228-30.713-73.358h-0.115l-17.316,41.478l-0.176,0.116h-2.809v-0.116
			C853.815,56.147,860.209,40.938,860.444,40.781z"/>
		<path fill="#FFFFFF" d="M897.903,124.396h-2.887c-0.215,0-0.482,0-2.812-6.031c-19.068-45.27-29.35-69.817-30.596-73.046
			l-17.211,41.222l-0.273,0.182h-3.061l0.014-0.385c18.859-45.449,19.119-45.625,19.26-45.717l0.049-0.033h2.35l0.053,0.041
			c0.264,0.206,1.016,1.564,4.508,10.318c19.793,46.925,30.09,71.513,30.6,73.078l0.01,0.062v0.311H897.903z M895.067,124.007h2.408
			c-0.92-2.521-11.189-27.039-30.543-72.914c-3.188-7.992-4.098-9.807-4.348-10.118h-2.035c-0.48,0.904-4.279,9.761-19.051,45.357
			h2.506l0.078-0.051l17.344-41.542h0.391l0.041,0.137c0.35,1.122,10.68,25.797,30.707,73.341
			C894.389,122.946,894.917,123.853,895.067,124.007z M828.458,124.396h-2.9l-0.117-0.117h-0.328l0.113-0.27
			c6.262-15.006,9.5-22.629,9.896-23.307l0.045-0.052c2.133-1.737,4.988-2.618,8.488-2.618h30.348l1.961,2.91l-0.287,0.286h-32.84
			c-3.178,0-5.168,1.108-6.078,3.39L828.458,124.396z M825.717,124.007h2.48l8.199-19.536c0.963-2.407,3.129-3.63,6.438-3.63h32.59
			l-1.631-2.42h-30.141c-3.393,0-6.156,0.845-8.215,2.508c-0.451,0.824-3.738,8.568-9.771,23.027L825.717,124.007z"/>
	</g>
</g>
<g>
	<g>
		<g>
			<path fill="#FFFFFF" d="M38.515,121.314h8.27c7.585,0,14.061-2.682,19.422-8.044c5.4-5.399,8.101-11.896,8.101-19.476V41.682
				h2.699v52.112c0,8.35-2.949,15.453-8.847,21.314c-5.938,5.938-13.062,8.906-21.375,8.906h-8.27V121.314z"/>
		</g>
		<g>
			<path fill="#FFFFFF" d="M46.785,124.21h-8.464v-3.09h8.464c7.499,0,13.987-2.688,19.284-7.988
				c5.338-5.338,8.044-11.844,8.044-19.338V41.487h3.088v52.308c0,8.363-2.996,15.58-8.904,21.453
				C62.347,121.194,55.109,124.21,46.785,124.21z M38.709,123.821h8.075c8.218,0,15.363-2.978,21.237-8.85
				c5.833-5.798,8.79-12.923,8.79-21.177V41.876H74.5v51.918c0,7.602-2.745,14.201-8.157,19.613
				c-5.374,5.375-11.954,8.102-19.56,8.102h-8.075L38.709,123.821L38.709,123.821z"/>
		</g>
	</g>
	<g>
		<g>
			<path fill="#FFFFFF" d="M90.854,41.856h2.357l0.23,0.286v51.363c0,7.891,2.029,14.097,6.09,18.617
				c2.221,2.603,4.232,4.459,6.031,5.571v0.114l-0.575,2.814c-9.577-6.166-14.363-14.996-14.363-26.486V42.143L90.854,41.856z
				 M147.848,41.856h2.471l0.23,0.286v50.615c0,7.699-1.417,13.638-4.253,17.812c-6.433,9.579-15.034,14.365-25.794,14.365
				c-4.023-0.153-6.283-0.44-6.781-0.86c0.229-1.727,0.479-2.587,0.747-2.587c2.106,0.459,4.156,0.688,6.148,0.688
				c9.997,0,17.924-4.654,23.787-13.961c2.142-3.982,3.215-8.045,3.215-12.18V42.143L147.848,41.856z"/>
		</g>
		<g>
			<path fill="#FFFFFF" d="M120.502,125.128h-0.007c-5.47-0.209-6.558-0.617-6.899-0.906l-0.081-0.068l0.014-0.105
				c0.306-2.295,0.586-2.756,0.94-2.756c2.121,0.459,4.175,0.689,6.148,0.689c9.876,0,17.824-4.667,23.623-13.87
				c2.112-3.927,3.186-7.993,3.186-12.075V42.074l0.331-0.412h2.657l0.331,0.412v50.685c0,7.705-1.442,13.734-4.287,17.92
				C140.018,120.267,131.285,125.128,120.502,125.128z M113.929,123.981c0.448,0.261,1.99,0.582,6.576,0.759
				c10.644-0.002,19.267-4.806,25.629-14.279c2.801-4.121,4.22-10.076,4.22-17.701V42.211l-0.129-0.16h-2.284l-0.129,0.16v53.826
				c0,4.146-1.089,8.274-3.239,12.271c-5.881,9.336-13.939,14.063-23.958,14.063c-1.983,0-4.048-0.229-6.138-0.683
				C114.407,121.757,114.184,122.117,113.929,123.981z M105.121,120.942l-0.238-0.153c-9.59-6.177-14.453-15.143-14.453-26.65
				V42.074l0.331-0.412h2.543l0.331,0.412v51.433c0,7.805,2.033,14.023,6.041,18.486c2.2,2.577,4.214,4.438,5.989,5.537l0.092,0.057
				v0.223L105.121,120.942z M90.818,42.211v51.927c0,11.271,4.722,20.074,14.036,26.169l0.511-2.505
				c-1.787-1.127-3.798-2.993-5.982-5.553c-4.071-4.531-6.137-10.838-6.137-18.742V42.211l-0.129-0.16h-2.17L90.818,42.211z"/>
		</g>
	</g>
	<g>
		<g>
			<path fill="#FFFFFF" d="M164.452,41.796h2.472l50.96,72.795c2.299,3.104,4.31,6.281,6.033,9.539l-0.114,0.113h-2.471
				c-0.649-0.652-14.191-19.996-40.622-58.03c-8.846-12.371-13.365-18.805-13.558-19.305h-0.114v77.106l-0.229,0.229h-2.357
				l-0.229-0.229V42.086L164.452,41.796z M221.333,41.796h2.354l0.231,0.29v67.91h-0.114c-1.802-1.724-2.701-2.793-2.701-3.218
				V42.086L221.333,41.796z"/>
		</g>
		<g>
			<path fill="#FFFFFF" d="M223.883,124.438h-2.632l-0.057-0.058c-0.66-0.664-14.335-20.196-40.644-58.055
				c-10.075-14.088-12.637-17.825-13.318-18.891v76.662l-0.344,0.342h-2.518l-0.343-0.342V42.019l0.33-0.417h2.668l0.058,0.083
				l50.96,72.796c2.294,3.097,4.329,6.313,6.045,9.56l0.067,0.127L223.883,124.438z M221.419,124.05h2.235
				c-1.688-3.17-3.682-6.312-5.926-9.342l-50.906-72.717h-2.276l-0.129,0.164v81.78l0.116,0.115h2.196l0.115-0.115v-77.22h0.442
				l0.048,0.125c0.128,0.332,2.58,3.942,13.535,19.262C206.667,103.227,220.303,122.712,221.419,124.05z M224.112,110.189h-0.387
				l-0.056-0.055c-2.447-2.338-2.761-3.022-2.761-3.356v-64.76l0.331-0.417h2.541l0.332,0.417V110.189z M221.297,42.154v64.624
				c0,0.16,0.242,0.761,2.426,2.87V42.154l-0.131-0.164h-2.166L221.297,42.154z"/>
		</g>
	</g>
	<g>
		<g>
			<path fill="#FFFFFF" d="M278.039,40.478c11.106,0,20.99,4.116,29.649,12.35l0.11,0.115v0.117
				c-1.032,1.225-1.646,1.837-1.836,1.837c-4.52-4.174-8.984-7.104-13.386-8.79c-4.98-1.876-9.825-2.817-14.537-2.817
				c-9.077,0-17.446,3.01-25.108,9.023c-9.461,8.234-14.19,18.231-14.19,29.99v1.092c0,13.522,6.126,24.554,18.383,33.092
				c-0.995,1.419-1.57,2.146-1.721,2.185c-7.891-5.283-13.444-12.16-16.662-20.625c-1.878-4.826-2.816-9.614-2.816-14.364v-1.723
				c0-9.922,3.657-19.171,10.975-27.751C255.824,45.052,266.203,40.478,278.039,40.478z M305.962,110.687l1.836,1.836
				c-3.561,3.604-6.875,6.129-9.938,7.584c-6.472,3.371-13.081,5.057-19.821,5.057c-3.027,0-6.166-0.383-9.421-1.146v-0.059
				c0.381-1.646,0.649-2.471,0.804-2.471c2.644,0.497,5.149,0.746,7.528,0.746h2.24c8.618,0,16.852-3.234,24.705-9.711
				L305.962,110.687z"/>
		</g>
		<g>
			<path fill="#FFFFFF" d="M278.039,125.357c-3.023,0-6.208-0.389-9.466-1.152l-0.15-0.035v-0.211
				c0.612-2.666,0.799-2.666,0.998-2.666c2.657,0.496,5.177,0.746,7.528,0.746h2.24c8.532,0,16.803-3.252,24.581-9.666l2.2-1.953
				l2.104,2.104l-0.136,0.137c-3.555,3.598-6.917,6.161-9.993,7.623C291.481,123.649,284.782,125.357,278.039,125.357z
				 M268.838,123.867c3.168,0.731,6.262,1.102,9.201,1.102c6.68,0,13.318-1.693,19.731-5.033c3.002-1.428,6.281-3.919,9.754-7.411
				l-1.57-1.569l-1.931,1.715c-7.855,6.478-16.209,9.76-24.834,9.76h-2.24c-2.348,0-4.862-0.247-7.474-0.733
				C269.399,121.821,269.212,122.272,268.838,123.867z M255.367,118.88l-0.071-0.047c-7.887-5.281-13.518-12.252-16.736-20.719
				c-1.876-4.822-2.829-9.681-2.829-14.434v-1.723c0-9.924,3.708-19.303,11.021-27.877c8.926-9.159,19.45-13.798,31.287-13.798
				c11.107,0,21.128,4.173,29.784,12.404l0.17,0.178v0.267l-0.046,0.054c-1.605,1.906-1.843,1.906-1.985,1.906h-0.076l-0.056-0.052
				c-4.48-4.137-8.962-7.081-13.324-8.751c-4.939-1.861-9.807-2.805-14.467-2.805c-8.988,0-17.395,3.022-24.988,8.982
				c-9.364,8.15-14.116,18.19-14.116,29.837v1.092c0,13.394,6.157,24.474,18.3,32.933l0.16,0.111l-0.112,0.16
				c-1.534,2.188-1.715,2.23-1.834,2.26L255.367,118.88z M278.039,40.672c-11.728,0-22.158,4.6-31,13.671
				c-7.243,8.492-10.919,17.786-10.919,27.615v1.723c0,4.705,0.943,9.515,2.803,14.294c3.175,8.353,8.719,15.233,16.479,20.46
				c0.136-0.131,0.501-0.553,1.451-1.9c-12.148-8.521-18.306-19.67-18.306-33.14v-1.092c0-11.764,4.796-21.903,14.256-30.136
				c7.671-6.021,16.159-9.071,25.236-9.071c4.708,0,9.622,0.952,14.605,2.83c4.381,1.677,8.877,4.621,13.365,8.751
				c0.127-0.084,0.519-0.414,1.581-1.67l-0.042-0.044C298.974,44.81,289.043,40.672,278.039,40.672z"/>
		</g>
	</g>
	<g>
		<g>
			<path fill="#FFFFFF" d="M320.784,41.682h62.05l0.288,0.288v2.299l-0.288,0.23h-62.05l-0.231-0.23V41.97L320.784,41.682z
				 M350.662,53h2.297l0.229,0.175v70.438l-0.229,0.172h-2.297l-0.231-0.172V53.175L350.662,53z"/>
		</g>
		<g>
			<path fill="#FFFFFF" d="M353.024,123.978h-2.427l-0.361-0.268V53.078l0.36-0.272h2.428l0.357,0.273v70.629L353.024,123.978z
				 M350.727,123.589h2.168l0.099-0.074V53.271l-0.1-0.076h-2.167l-0.102,0.077v70.243L350.727,123.589z M382.903,44.692h-62.199
				l-0.345-0.344V41.9l0.332-0.414h62.224l0.401,0.401v2.473L382.903,44.692z M320.865,44.304h61.901l0.162-0.129V42.05
				l-0.174-0.174h-61.876l-0.13,0.162v2.15L320.865,44.304z"/>
		</g>
	</g>
	<g>
		<g>
			<path fill="#FFFFFF" d="M402.197,41.682h2.701v82.334h-2.701V41.682z"/>
		</g>
		<g>
			<path fill="#FFFFFF" d="M405.092,124.21h-3.09V41.487h3.09V124.21z M402.391,123.821h2.312V41.876h-2.312V123.821z"/>
		</g>
	</g>
	<g>
		<g>
			<path fill="#FFFFFF" d="M465.683,40.649c4.675,0,9.462,0.86,14.365,2.585l0.115,0.115v0.114
				c-0.611,1.572-1.053,2.355-1.322,2.355c-4.174-1.493-8.178-2.24-12.007-2.24h-2.469c-7.779,0-15.454,2.74-23.04,8.217
				c-10.114,8.312-15.169,18.653-15.169,31.024c0,14.21,6.396,25.565,19.188,34.069c0,0.311-0.362,1.094-1.09,2.357
				c-8.543-4.94-14.649-12.238-18.327-21.893c-1.727-4.863-2.586-9.688-2.586-14.476c0-10.842,3.867-20.511,11.607-29.017
				C443.715,45.052,453.964,40.649,465.683,40.649z M488.667,47.485c5.057,3.295,9.383,7.699,12.984,13.214
				c4.211,7.204,6.318,14.573,6.318,22.121c0,13.217-5.555,24.416-16.662,33.612c-7.969,5.743-16.51,8.616-25.625,8.616
				c-4.672,0-8.979-0.689-12.927-2.068c0.575-1.57,0.996-2.354,1.264-2.354c3.563,0.996,6.934,1.494,10.112,1.494h0.978l0.459,0.113
				l0.461-0.113h1.032c10.072,0,19.172-4.062,27.293-12.18c4.402-4.292,7.697-10.498,9.885-18.617
				c0.494-2.986,0.744-5.402,0.744-7.238V81.67c0-8.234-2.969-16.219-8.906-23.958c-4.021-4.33-6.857-6.838-8.502-7.526
				l-0.117-0.115h-0.057C487.401,49.381,487.823,48.52,488.667,47.485z"/>
		</g>
		<g>
			<path fill="#FFFFFF" d="M465.683,125.244c-4.67,0-9.041-0.699-12.99-2.08l-0.188-0.064l0.068-0.186
				c0.838-2.291,1.186-2.482,1.446-2.482l0.053,0.007c3.528,0.987,6.914,1.487,10.06,1.487h0.978l0.458,0.107l0.416-0.103
				l1.078-0.007c9.973,0,19.107-4.077,27.154-12.121c4.357-4.247,7.666-10.481,9.834-18.53c0.488-2.948,0.736-5.374,0.736-7.188
				V81.67c0-8.152-2.982-16.173-8.865-23.839c-3.969-4.273-6.807-6.79-8.422-7.466l-0.062-0.041l-0.061-0.059h-0.17v-0.194
				c0-0.741,0.428-1.626,1.307-2.708l0.111-0.136l0.145,0.096c5.057,3.293,9.443,7.758,13.041,13.271
				c4.219,7.21,6.354,14.687,6.354,22.227c0,13.21-5.629,24.569-16.732,33.761C483.456,122.332,474.795,125.244,465.683,125.244z
				 M453.007,122.861c3.859,1.322,8.123,1.993,12.675,1.993c9.03,0,17.614-2.888,25.512-8.58
				c10.998-9.106,16.58-20.366,16.58-33.455c0-7.471-2.117-14.881-6.293-22.022c-3.529-5.405-7.828-9.799-12.775-13.053
				c-0.686,0.869-1.057,1.606-1.105,2.195l0.084,0.082c1.672,0.718,4.541,3.261,8.533,7.559c5.949,7.75,8.957,15.851,8.957,24.09
				v2.415c0,1.835-0.25,4.282-0.746,7.27c-2.188,8.137-5.531,14.43-9.939,18.725c-8.119,8.119-17.35,12.234-27.428,12.234h-1.032
				l-0.461,0.12l-0.507-0.125l-0.93,0.005c-3.168,0-6.574-0.501-10.122-1.488C453.945,120.861,453.657,121.121,453.007,122.861z
				 M444.325,119.513l-0.169-0.098c-8.54-4.939-14.734-12.338-18.411-21.992c-1.726-4.857-2.599-9.75-2.599-14.544
				c0-10.84,3.922-20.647,11.657-29.148c8.77-8.811,19.156-13.275,30.878-13.275c4.678,0,9.532,0.874,14.428,2.597l0.074,0.046
				l0.17,0.172l-0.014,0.265c-0.846,2.179-1.223,2.479-1.502,2.479l-0.066-0.011c-4.133-1.479-8.15-2.229-11.94-2.229h-2.469
				c-7.695,0-15.408,2.752-22.926,8.18c-10.009,8.225-15.089,18.612-15.089,30.866c0,14.074,6.428,25.481,19.103,33.907l0.087,0.059
				v0.104c0,0.221-0.116,0.715-1.116,2.455L444.325,119.513z M465.683,40.844c-11.615,0-21.909,4.426-30.597,13.155
				c-7.662,8.42-11.551,18.139-11.551,28.88c0,4.75,0.866,9.598,2.575,14.412c3.618,9.5,9.697,16.797,18.071,21.69
				c0.706-1.244,0.908-1.772,0.955-1.995c-12.725-8.496-19.176-19.99-19.176-34.166c0-12.375,5.128-22.864,15.24-31.174
				c7.595-5.484,15.385-8.261,23.163-8.261h2.469c3.82,0,7.863,0.751,12.021,2.233c0.078-0.045,0.393-0.339,1.113-2.188
				l-0.025-0.026C475.098,41.705,470.301,40.844,465.683,40.844z"/>
		</g>
	</g>
	<g>
		<g>
			<path fill="#FFFFFF" d="M519.862,41.796h2.473l50.963,72.795c2.297,3.104,4.309,6.281,6.031,9.539l-0.117,0.113h-2.469
				c-0.652-0.652-14.193-19.996-40.619-58.03c-8.85-12.371-13.371-18.805-13.562-19.305h-0.113v77.106l-0.23,0.229h-2.355
				l-0.23-0.229V42.086L519.862,41.796z M576.743,41.796h2.354l0.23,0.29v67.91h-0.115c-1.801-1.724-2.701-2.793-2.701-3.218V42.086
				L576.743,41.796z"/>
		</g>
		<g>
			<path fill="#FFFFFF" d="M579.292,124.438h-2.629l-0.057-0.058c-0.67-0.67-13.965-19.659-40.645-58.055
				c-9.752-13.634-12.557-17.69-13.32-18.894v76.664l-0.342,0.343h-2.52l-0.342-0.343V42.02l0.326-0.417h2.67l0.057,0.083
				l50.963,72.796c2.295,3.1,4.33,6.316,6.045,9.561l0.068,0.127L579.292,124.438z M576.829,124.05h2.236
				c-1.688-3.166-3.68-6.309-5.926-9.342l-50.906-72.717h-2.277l-0.129,0.163v81.782l0.115,0.114h2.195l0.115-0.114v-77.22h0.441
				l0.049,0.125c0.184,0.479,4.738,6.96,13.537,19.262C562.079,103.229,575.711,122.716,576.829,124.05z M579.522,110.189h-0.389
				l-0.057-0.055c-2.447-2.342-2.762-3.024-2.762-3.356v-64.76l0.332-0.417h2.543l0.33,0.417v68.171H579.522z M576.706,42.154
				v64.624c0,0.159,0.242,0.757,2.428,2.871V42.154l-0.129-0.164h-2.168L576.706,42.154z"/>
		</g>
	</g>
</g>
<g>
	<g>
		<rect x="609.594" y="16.821" fill="#FFFFFF" width="2" height="132.919"/>
	</g>
</g>
<g>
	<g>
		<g>
			<g>
				<g>
					<g>
						<path fill="#FFFFFF" d="M1033.533,130.804l-15.013-15.013c-9.898-9.898-6.993-28.912,6.477-42.382l21.49-21.488l8.991,8.991
							L1033.99,82.4c-8.224,8.225-11.251,19.626-6.477,24.401l15.01,15.012L1033.533,130.804z M1046.487,58.141l-18.378,18.378
							c-11.757,11.756-14.662,27.979-6.479,36.163l11.902,11.899l2.77-2.769l-11.9-11.902c-6.655-6.656-3.75-20.393,6.478-30.619
							l18.378-18.379L1046.487,58.141z"/>
					</g>
				</g>
			</g>
		</g>
	</g>
	<g>
		<g>
			<g>
				<g>
					<g>
						<path fill="#FFFFFF" d="M992.566,123.824l-8.992-8.99l21.49-21.49c6.188-6.19,13.76-10.405,21.315-11.873
							c1.951-0.377,3.882-0.569,5.733-0.569c6.127,0,11.431,2.062,15.333,5.965l15.642,15.012l-8.991,8.993l-15.642-15.014
							c-2.021-2.02-5.51-2.708-9.653-1.902c-5.093,0.986-10.331,3.963-14.746,8.379L992.566,123.824z M989.796,114.833l2.77,2.769
							l18.379-18.378c5.03-5.029,11.074-8.435,17.018-9.587c1.417-0.274,2.802-0.414,4.114-0.414c3.902,0,7.182,1.218,9.488,3.524
							l12.531,11.902l2.771-2.771l-12.531-11.901c-3.061-3.061-7.287-4.677-12.223-4.677c-1.572,0-3.219,0.165-4.896,0.49
							c-6.706,1.301-13.468,5.089-19.043,10.664L989.796,114.833z"/>
					</g>
				</g>
			</g>
		</g>
	</g>
	<g>
		<g>
			<g>
				<g>
					<g>
						<path fill="#FFFFFF" d="M986.665,117.988l-8.991-8.99l21.49-21.488c8.223-8.226,11.362-19.516,6.717-24.16l-14.771-14.771
							l8.991-8.991l14.771,14.769c9.768,9.768,6.756,28.673-6.716,42.143L986.665,117.988z M983.894,108.998l2.771,2.771
							l18.38-18.378c11.756-11.756,14.77-27.871,6.717-35.922L1000.1,45.807l-2.769,2.771l11.66,11.661
							c6.521,6.522,3.51,20.151-6.719,30.379L983.894,108.998z"/>
					</g>
				</g>
			</g>
		</g>
	</g>
	<g>
		<g>
			<g>
				<g>
					<g>
						<path fill="#FFFFFF" d="M1000.98,89.049c-6.064,0-11.264-1.995-15.033-5.765l-14.771-14.772l8.99-8.991l14.772,14.771
							c1.767,1.767,4.288,2.137,6.092,2.137c5.682,0,12.604-3.394,18.067-8.854l21.488-21.49l8.992,8.993l-21.489,21.488
							C1020.272,84.382,1010.137,89.049,1000.98,89.049z M977.393,68.512l11.663,11.662c2.93,2.929,7.052,4.478,11.924,4.478
							c8.017,0,16.987-4.186,23.998-11.195l18.379-18.378l-2.771-2.773l-18.379,18.38c-6.258,6.257-14.372,10.144-21.177,10.144
							c-3.78,0-6.959-1.186-9.2-3.426l-11.664-11.661L977.393,68.512z"/>
					</g>
				</g>
			</g>
		</g>
	</g>
</g>
<g>
	<path fill="#FFFFFF" d="M1017.131,168.965c-46.19,0-83.77-37.579-83.77-83.77c0-46.191,37.579-83.77,83.77-83.77
		s83.77,37.579,83.77,83.77C1100.901,131.386,1063.322,168.965,1017.131,168.965z M1017.131,5.405
		c-43.998,0-79.791,35.794-79.791,79.791s35.793,79.791,79.791,79.791c43.995,0,79.791-35.794,79.791-79.791
		S1061.126,5.405,1017.131,5.405z"/>
</g>
</svg>
