<?xml version="1.0" encoding="utf-8"?>
<!-- Generator: Adobe Illustrator 19.1.0, SVG Export Plug-In . SVG Version: 6.00 Build 0)  -->
<svg version="1.1" id="Layer_1" xmlns="http://www.w3.org/2000/svg" xmlns:xlink="http://www.w3.org/1999/xlink" x="0px" y="0px"
	 viewBox="-298 390 14 14" style="enable-background:new -298 390 14 14;" xml:space="preserve">
<style type="text/css">
	.st0{fill:#C3BCB2;}
</style>
<g id="fb">
	<g>
		<g id="post-facebook">
			<path class="st0" d="M-285.4,390h-11.2c-0.8,0-1.4,0.6-1.4,1.4v11.2c0,0.8,0.6,1.4,1.4,1.4h11.2c0.8,0,1.4-0.6,1.4-1.4v-11.2
				C-284,390.6-284.6,390-285.4,390z M-286.1,391.4v2.1h-1.4c-0.4,0-0.7,0.3-0.7,0.7v1.4h2.1v2.1h-2.1v4.9h-2.1v-4.9h-1.4v-2.1h1.4
				v-1.7c0-1.3,1.1-2.5,2.5-2.5C-287.8,391.4-286.1,391.4-286.1,391.4z"/>
		</g>
	</g>
</g>
</svg>
