<?xml version="1.0" encoding="utf-8"?>
<!-- Generator: Adobe Illustrator 19.1.0, SVG Export Plug-In . SVG Version: 6.00 Build 0)  -->
<svg version="1.1" id="Layer_1" xmlns="http://www.w3.org/2000/svg" xmlns:xlink="http://www.w3.org/1999/xlink" x="0px" y="0px"
	 viewBox="-298 391.6 14 11.4" style="enable-background:new -298 391.6 14 11.4;" xml:space="preserve">
<style type="text/css">
	.st0{fill:#C3BCB2;}
</style>
<g id="Layer_9">
	<g>
		<g>
			<path class="st0" d="M-284,392.9c-0.5,0.2-1.1,0.4-1.7,0.5c0.6-0.4,1-0.9,1.3-1.6c-0.6,0.3-1.2,0.6-1.8,0.7
				c-0.5-0.6-1.3-0.9-2.1-0.9c-1.6,0-2.9,1.3-2.9,2.9c0,0.2,0,0.4,0.1,0.7c-2.4-0.2-4.5-1.3-5.9-3.1c-0.3,0.5-0.4,0.9-0.4,1.5
				c0,1,0.5,1.9,1.3,2.4c-0.5,0-0.9-0.2-1.3-0.4l0,0c0,1.4,1,2.6,2.3,2.8c-0.3,0.1-0.5,0.2-0.8,0.2c-0.2,0-0.4,0-0.5-0.1
				c0.4,1.1,1.4,2,2.7,2c-1,0.8-2.2,1.2-3.6,1.2c-0.2,0-0.5,0-0.7,0c1.3,0.8,2.8,1.3,4.4,1.3c5.3,0,8.2-4.4,8.2-8.2v-0.4
				C-284.8,394-284.3,393.5-284,392.9z"/>
		</g>
	</g>
</g>
</svg>
